HIERARCHY
ROOT joint_Root
{
	OFFSET 0.0 0.0 0.0
	CHANNELS 6 Xposition Yposition Zposition Zrotation Xrotation Yrotation 
	JOINT Hips
	{
		OFFSET -0.726466 93.3139 -2.00062
		CHANNELS 6 Xposition Yposition Zposition Zrotation Xrotation Yrotation 
		JOINT Spine
		{
			OFFSET 15.7357 0.0 0.0
			CHANNELS 6 Xposition Yposition Zposition Zrotation Xrotation Yrotation 
			JOINT Chest
			{
				OFFSET 8.98455 -0.406207 0.0
				CHANNELS 6 Xposition Yposition Zposition Zrotation Xrotation Yrotation 
				JOINT Neck
				{
					OFFSET 16.3773 0.0 0.0
					CHANNELS 6 Xposition Yposition Zposition Zrotation Xrotation Yrotation 
					JOINT Head
					{
						OFFSET 6.45672 0.0 0.0
						CHANNELS 6 Xposition Yposition Zposition Zrotation Xrotation Yrotation 
						End Site
						{
							OFFSET 0.0 0.0 0.0
						}
					}
				}
				JOINT Shoulder_L
				{
					OFFSET 12.9942 -0.242716 4.98039
					CHANNELS 6 Xposition Yposition Zposition Zrotation Xrotation Yrotation 
					JOINT UpperArm_L
					{
						OFFSET 5.34809 0.0 0.0
						CHANNELS 6 Xposition Yposition Zposition Zrotation Xrotation Yrotation 
						JOINT LowerArm_L
						{
							OFFSET 24.3286 1.87007e-05 0.0
							CHANNELS 6 Xposition Yposition Zposition Zrotation Xrotation Yrotation 
							JOINT Hand_L
							{
								OFFSET 22.2916 0.0 0.0
								CHANNELS 6 Xposition Yposition Zposition Zrotation Xrotation Yrotation 
								End Site
								{
									OFFSET 0.0 0.0 0.0
								}
							}
						}
					}
				}
				JOINT Shoulder_R
				{
					OFFSET 12.9945 -0.242716 -4.98039
					CHANNELS 6 Xposition Yposition Zposition Zrotation Xrotation Yrotation 
					JOINT UpperArm_R
					{
						OFFSET -5.34813 0.0 0.0
						CHANNELS 6 Xposition Yposition Zposition Zrotation Xrotation Yrotation 
						JOINT LowerArm_R
						{
							OFFSET -24.3289 0.000322201 0.0
							CHANNELS 6 Xposition Yposition Zposition Zrotation Xrotation Yrotation 
							JOINT Hand_R
							{
								OFFSET -22.2915 -0.000108084 0.0
								CHANNELS 6 Xposition Yposition Zposition Zrotation Xrotation Yrotation 
								End Site
								{
									OFFSET 0.0 0.0 0.0
								}
							}
						}
					}
				}
			}
		}
		JOINT UpperLeg_L
		{
			OFFSET -2.19248 -6.46944 0.0
			CHANNELS 6 Xposition Yposition Zposition Zrotation Xrotation Yrotation 
			JOINT LowerLeg_L
			{
				OFFSET 39.0811 0.0 -1.23785e-05
				CHANNELS 6 Xposition Yposition Zposition Zrotation Xrotation Yrotation 
				JOINT Foot_L
				{
					OFFSET 40.9854 0.0 -1.26872e-05
					CHANNELS 6 Xposition Yposition Zposition Zrotation Xrotation Yrotation 
					JOINT Toes_L
					{
						OFFSET 11.7543 0.0 0.0
						CHANNELS 6 Xposition Yposition Zposition Zrotation Xrotation Yrotation 
						End Site
						{
							OFFSET 0.0 0.0 0.0
						}
					}
				}
			}
		}
		JOINT UpperLeg_R
		{
			OFFSET -2.19251 6.46944 0.0
			CHANNELS 6 Xposition Yposition Zposition Zrotation Xrotation Yrotation 
			JOINT LowerLeg_R
			{
				OFFSET -39.0811 -0.00228153 -0.0401928
				CHANNELS 6 Xposition Yposition Zposition Zrotation Xrotation Yrotation 
				JOINT Foot_R
				{
					OFFSET -40.9854 0.0 0.0
					CHANNELS 6 Xposition Yposition Zposition Zrotation Xrotation Yrotation 
					JOINT Toes_R
					{
						OFFSET -11.7543 0.0 0.0
						CHANNELS 6 Xposition Yposition Zposition Zrotation Xrotation Yrotation 
						End Site
						{
							OFFSET 0.0 0.0 0.0
						}
					}
				}
			}
		}
	}
}
MOTION
Frames:	7
Frame Time:	0.0333333
0.000000 0.000000 0.000000 0.000000 0.000000 -0.000000 -0.394261 92.206000 0.064040 87.938100 -1.067270 4.545430 15.735700 0.000005 -0.000001 97.938700 85.532700 -98.549500 8.984550 -0.406207 -0.000000 1.090390 1.269050 -1.232660 16.377300 -0.000001 -0.000001 5.506660 -2.349910 0.969321 6.456720 -0.000001 -0.000000 1.379850 -2.279830 -4.419580 12.994200 -0.242716 4.980390 -89.994300 -0.018054 -72.328000 5.348090 -0.000007 -0.000001 -67.170500 39.049500 -13.218000 24.328600 0.000019 0.000005 0.698641 1.668340 -22.725000 22.291600 -0.000001 0.000005 5.572430 5.485540 -5.961780 12.994500 -0.242716 -4.980390 89.228100 2.362590 -71.901400 -5.348130 -0.000001 -0.000004 -71.577000 -23.007300 -84.896000 -24.328900 0.000322 -0.000009 18.831900 -0.930117 -92.725800 -22.291500 -0.000108 -0.000004 25.588200 5.285020 0.488271 -2.192480 -6.469440 -0.000000 -175.650000 -5.585820 -1.678230 39.081100 -0.000007 -0.000012 -0.113233 0.264661 23.163400 40.985400 -0.000006 -0.000013 -0.240182 2.330760 -67.158700 11.754300 -0.000000 0.000003 -0.000039 -0.000457 -16.595400 -2.192510 6.469440 -0.000001 179.515000 13.106800 -179.620000 -39.081100 -0.002282 -0.040193 0.012545 -0.025058 20.208800 -40.985400 0.000008 0.000006 4.957880 7.178090 -66.741900 -11.754300 -0.000006 -0.000006 -0.008023 -0.088217 -20.165400
0.000000 0.000000 0.000000 0.000000 0.000000 -0.000000 -0.354315 92.209100 0.044828 87.919800 -1.098780 4.489810 15.735700 0.000005 -0.000001 97.653500 85.541900 -98.235300 8.984550 -0.406207 -0.000000 1.077450 1.220920 -1.174080 16.377300 -0.000001 -0.000001 5.444440 -2.386810 0.999396 6.456720 -0.000001 -0.000000 1.353140 -2.284260 -4.483210 12.994200 -0.242716 4.980390 -90.000900 0.002859 -72.347500 5.348090 -0.000007 -0.000001 -67.276400 39.119100 -13.183000 24.328600 0.000019 0.000005 0.753229 1.802360 -22.684000 22.291600 -0.000001 0.000005 5.588490 5.488110 -6.062020 12.994500 -0.242716 -4.980390 89.230500 2.346310 -71.837200 -5.348130 -0.000001 -0.000004 -71.475300 -23.077700 -84.980200 -24.328900 0.000322 -0.000009 18.597600 -0.837143 -92.486900 -22.291500 -0.000108 -0.000004 25.568300 5.284770 0.494949 -2.192480 -6.469440 -0.000000 -175.663000 -5.656960 -1.745440 39.081100 -0.000007 -0.000012 -0.112550 0.262934 23.173600 40.985400 -0.000006 -0.000013 -0.208111 2.329470 -67.156600 11.754300 -0.000000 0.000003 -0.000049 -0.000558 -16.599200 -2.192510 6.469440 -0.000001 179.527000 13.069400 -179.697000 -39.081100 -0.002282 -0.040193 0.011949 -0.023467 20.186400 -40.985400 0.000008 0.000006 4.841910 7.159520 -66.678300 -11.754300 -0.000006 -0.000006 -0.008053 -0.088469 -20.175600
0.000000 0.000000 0.000000 0.000000 0.000000 -0.000000 -0.304182 92.215400 0.027529 87.909100 -1.141440 4.468090 15.735700 0.000005 -0.000001 97.405600 85.539200 -97.964400 8.984550 -0.406207 -0.000000 1.087420 1.182000 -1.127960 16.377300 -0.000001 -0.000001 5.437230 -2.440710 1.005300 6.456720 -0.000001 -0.000000 1.300100 -2.279480 -4.493830 12.994200 -0.242716 4.980390 -90.008500 0.026602 -72.365000 5.348090 -0.000007 -0.000001 -67.363900 39.189800 -13.135300 24.328600 0.000019 0.000005 0.708810 1.700780 -22.627000 22.291600 -0.000001 0.000005 5.494840 5.489400 -6.112370 12.994500 -0.242716 -4.980390 89.239800 2.310800 -71.784400 -5.348130 -0.000001 -0.000004 -71.346600 -23.171900 -84.933800 -24.328900 0.000322 -0.000009 18.429700 -0.761060 -92.283400 -22.291500 -0.000108 -0.000004 25.411300 5.289100 0.376070 -2.192480 -6.469440 -0.000000 -175.683000 -5.729150 -1.775700 39.081100 -0.000007 -0.000012 -0.112173 0.262203 23.161700 40.985400 -0.000006 -0.000013 -0.164710 2.359520 -67.136000 11.754300 -0.000000 0.000003 -0.000043 -0.000493 -16.596700 -2.192510 6.469440 -0.000001 179.531000 13.019600 -179.725000 -39.081100 -0.002282 -0.040193 0.013757 -0.028433 20.154400 -40.985400 0.000008 0.000006 4.845170 7.139490 -66.640000 -11.754300 -0.000006 -0.000006 -0.007892 -0.087145 -20.121600
0.000000 0.000000 0.000000 0.000000 0.000000 -0.000000 -0.263834 92.218300 0.018117 87.917600 -1.167260 4.452870 15.735700 0.000005 -0.000001 97.187300 85.539500 -97.738500 8.984550 -0.406207 -0.000000 1.090930 1.147770 -1.112560 16.377300 -0.000001 -0.000001 5.433040 -2.466650 1.052850 6.456720 -0.000001 -0.000000 1.307080 -2.341890 -4.469420 12.994200 -0.242716 4.980390 -90.011900 0.037504 -72.401000 5.348090 -0.000007 -0.000001 -67.467700 39.268900 -13.040000 24.328600 0.000019 0.000005 0.678779 1.627920 -22.636500 22.291600 -0.000001 0.000005 5.530270 5.487180 -6.025580 12.994500 -0.242716 -4.980390 89.236900 2.311070 -71.721800 -5.348130 -0.000001 -0.000004 -71.028200 -23.300400 -84.564400 -24.328900 0.000322 -0.000009 18.285200 -0.742494 -92.246600 -22.291500 -0.000108 -0.000004 25.313800 5.289070 0.376379 -2.192480 -6.469440 -0.000000 -175.729000 -5.673380 -1.773530 39.081100 -0.000007 -0.000012 -0.111923 0.261944 23.136100 40.985400 -0.000006 -0.000013 -0.156517 2.277680 -67.130400 11.754300 -0.000000 0.000003 -0.000044 -0.000505 -16.597200 -2.192510 6.469440 -0.000001 179.504000 12.963700 -179.748000 -39.081100 -0.002282 -0.040193 0.015817 -0.034036 20.159100 -40.985400 0.000008 0.000006 4.904930 7.132380 -66.647400 -11.754300 -0.000006 -0.000006 -0.008156 -0.089305 -20.209800
0.000000 0.000000 0.000000 0.000000 0.000000 -0.000000 -0.221329 92.219300 0.025037 87.907800 -1.216330 4.483570 15.735700 0.000005 -0.000001 97.115200 85.517900 -97.658700 8.984550 -0.406207 -0.000000 1.135080 1.141310 -1.097550 16.377300 -0.000001 -0.000001 5.412650 -2.522670 1.067480 6.456720 -0.000001 -0.000000 1.278370 -2.438930 -4.417540 12.994200 -0.242716 4.980390 -90.020700 0.065111 -72.390400 5.348090 -0.000007 -0.000001 -67.531200 39.229500 -12.947900 24.328600 0.000019 0.000005 0.704695 1.688620 -22.654600 22.291600 -0.000001 0.000005 5.437500 5.488650 -6.082770 12.994500 -0.242716 -4.980390 89.225500 2.330570 -71.611900 -5.348130 -0.000001 -0.000004 -70.590200 -23.378200 -83.840700 -24.328900 0.000322 -0.000009 17.505700 -0.739888 -92.345400 -22.291500 -0.000108 -0.000004 25.153400 5.294250 0.232592 -2.192480 -6.469440 -0.000000 -175.751000 -5.663440 -1.742480 39.081100 -0.000007 -0.000012 -0.110903 0.259489 23.141500 40.985400 -0.000006 -0.000013 -0.135091 2.232180 -67.136700 11.754300 -0.000000 0.000003 -0.000038 -0.000446 -16.594900 -2.192510 6.469440 -0.000001 179.492000 12.906900 -179.717000 -39.081100 -0.002282 -0.040193 0.017613 -0.038933 20.157300 -40.985400 0.000008 0.000006 4.967330 7.136170 -66.654800 -11.754300 -0.000006 -0.000006 -0.008289 -0.090372 -20.253400
0.000000 0.000000 0.000000 0.000000 0.000000 -0.000000 -0.193334 92.219800 0.002476 87.913500 -1.256050 4.426820 15.735700 0.000005 -0.000001 96.781600 85.526700 -97.318400 8.984550 -0.406207 -0.000000 1.123560 1.087120 -1.083510 16.377300 -0.000001 -0.000001 5.345350 -2.556070 1.085450 6.456720 -0.000001 -0.000000 1.268390 -2.429570 -4.459540 12.994200 -0.242716 4.980390 -90.029900 0.094071 -72.369100 5.348090 -0.000007 -0.000001 -67.627600 39.192000 -12.769900 24.328600 0.000019 0.000005 0.725122 1.731270 -22.728800 22.291600 -0.000001 0.000005 5.475520 5.487850 -6.051770 12.994500 -0.242716 -4.980390 89.190600 2.422530 -71.518600 -5.348130 -0.000001 -0.000004 -69.842400 -23.318900 -82.713200 -24.328900 0.000322 -0.000009 15.903300 -0.733817 -92.574800 -22.291500 -0.000108 -0.000004 24.753700 5.297780 0.133777 -2.192480 -6.469440 -0.000000 -175.793000 -5.665360 -1.814510 39.081100 -0.000007 -0.000012 -0.110406 0.258210 23.150800 40.985400 -0.000006 -0.000013 -0.127711 2.152780 -67.130700 11.754300 -0.000000 0.000003 -0.000043 -0.000495 -16.596800 -2.192510 6.469440 -0.000001 179.485000 12.870100 -179.806000 -39.081100 -0.002282 -0.040193 0.016380 -0.035550 20.171100 -40.985400 0.000008 0.000006 4.875750 7.127840 -66.621400 -11.754300 -0.000006 -0.000006 -0.008203 -0.089681 -20.225200
0.000000 0.000000 0.000000 0.000000 0.000000 -0.000000 -0.177473 92.209400 0.004430 87.874900 -1.329810 4.454300 15.735700 0.000005 -0.000001 96.424600 85.516500 -96.941500 8.984550 -0.406207 -0.000000 1.149660 1.032750 -1.043410 16.377300 -0.000001 -0.000001 5.291510 -2.604170 1.076440 6.456720 -0.000001 -0.000000 1.269050 -2.392460 -4.549350 12.994200 -0.242716 4.980390 -90.033000 0.103834 -72.397500 5.348090 -0.000007 -0.000001 -67.690600 39.236100 -12.565200 24.328600 0.000019 0.000005 0.720043 1.720290 -22.715000 22.291600 -0.000001 0.000005 5.484880 5.487490 -6.037540 12.994500 -0.242716 -4.980390 89.148400 2.528700 -71.380600 -5.348130 -0.000001 -0.000004 -68.680500 -22.971900 -80.927500 -24.328900 0.000322 -0.000009 13.714000 -0.701390 -92.873400 -22.291500 -0.000108 -0.000004 24.114100 5.305410 -0.082795 -2.192480 -6.469440 -0.000000 -175.757000 -5.767630 -1.824510 39.081100 -0.000007 -0.000012 -0.110510 0.257198 23.251900 40.985400 -0.000006 -0.000013 -0.102736 2.182290 -67.189000 11.754300 -0.000000 0.000003 -0.000044 -0.000503 -16.597100 -2.192510 6.469440 -0.000001 179.498000 12.834300 -179.804000 -39.081100 -0.002282 -0.040193 0.015210 -0.032288 20.214300 -40.985400 0.000008 0.000006 4.811950 7.174780 -66.627500 -11.754300 -0.000006 -0.000006 -0.007889 -0.087127 -20.120800
